<svg id="icon-google" width="40" height="40" viewBox="0 0 40 40" fill="none" xmlns="http://www.w3.org/2000/svg">
<rect x="0.5" y="0.5" width="39" height="39" rx="19.5" stroke="#266294"/>
<path d="M20.0004 32C18.0274 31.9993 16.0849 31.512 14.345 30.5814C12.6052 29.6508 11.1217 28.3055 10.0258 26.6647C8.92999 25.0239 8.25565 23.1382 8.06251 21.1746C7.86938 19.211 8.16341 17.2301 8.91858 15.4072C9.67375 13.5843 10.8667 11.9758 12.3919 10.7241C13.9171 9.47231 15.7274 8.61595 17.6626 8.23082C19.5977 7.84569 21.598 7.94367 23.4862 8.51608C25.3744 9.08849 27.0924 10.1177 28.4879 11.5125C28.675 11.7 28.78 11.954 28.78 12.2188C28.78 12.4835 28.675 12.7375 28.4879 12.925C28.396 13.0191 28.2861 13.0939 28.1648 13.1449C28.0436 13.196 27.9133 13.2223 27.7817 13.2223C27.6501 13.2223 27.5198 13.196 27.3986 13.1449C27.2773 13.0939 27.1674 13.0191 27.0754 12.925C25.4707 11.3188 23.3671 10.3066 21.1107 10.0547C18.8542 9.80281 16.5792 10.3263 14.6598 11.5391C12.7404 12.7518 11.2908 14.5817 10.5494 16.7277C9.80803 18.8737 9.81903 21.2082 10.5806 23.3471C11.3421 25.486 12.8089 27.3022 14.7396 28.4968C16.6704 29.6914 18.9502 30.1935 21.2042 29.9204C23.4582 29.6472 25.5521 28.6152 27.1417 26.994C28.7313 25.3728 29.7218 23.2589 29.9504 21H20.0004C19.7352 21 19.4809 20.8946 19.2933 20.7071C19.1058 20.5196 19.0004 20.2652 19.0004 20C19.0004 19.7348 19.1058 19.4804 19.2933 19.2929C19.4809 19.1054 19.7352 19 20.0004 19H31.0004C31.2657 19 31.52 19.1054 31.7076 19.2929C31.8951 19.4804 32.0004 19.7348 32.0004 20C31.9938 23.1806 30.7274 26.229 28.4784 28.478C26.2294 30.727 23.181 31.9934 20.0004 32Z" fill="#266294"/>
</svg>
