<svg id="icon-twitter" width="40" height="40" viewBox="0 0 40 40" fill="none" xmlns="http://www.w3.org/2000/svg">
<rect x="0.5" y="0.5" width="39" height="39" rx="19.5" stroke="#266294"/>
<path d="M13.0176 28H10.6641V15.7148H6.48438V13.7227H17.1875V15.7148H13.0176V28ZM27.9785 27.9902L26.6113 22.9609C26.5462 22.7135 26.4681 22.4141 26.377 22.0625C26.2858 21.7109 26.1947 21.3496 26.1035 20.9785C26.0124 20.6009 25.9277 20.2526 25.8496 19.9336C25.778 19.6146 25.7227 19.3672 25.6836 19.1914H25.6055C25.5729 19.3672 25.5208 19.6146 25.4492 19.9336C25.3776 20.2526 25.2962 20.6009 25.2051 20.9785C25.1139 21.3561 25.0228 21.724 24.9316 22.082C24.847 22.4401 24.7689 22.7461 24.6973 23L23.2617 27.9902H20.7422L17.7148 17.1797H20.0391L21.4453 22.5508C21.5365 22.9154 21.6243 23.3092 21.709 23.7324C21.8001 24.1556 21.8783 24.5592 21.9434 24.9434C22.0085 25.3275 22.0573 25.6432 22.0898 25.8906H22.168C22.194 25.7148 22.2298 25.4935 22.2754 25.2266C22.321 24.9531 22.373 24.6699 22.4316 24.377C22.4902 24.0775 22.5488 23.7975 22.6074 23.5371C22.666 23.2702 22.7214 23.0553 22.7734 22.8926L24.4336 17.1797H26.9434L28.5352 22.8926C28.6068 23.14 28.6849 23.4525 28.7695 23.8301C28.8542 24.2012 28.929 24.5755 28.9941 24.9531C29.0658 25.3242 29.1113 25.6335 29.1309 25.8809H29.209C29.235 25.6595 29.2806 25.36 29.3457 24.9824C29.4173 24.5983 29.4987 24.1914 29.5898 23.7617C29.681 23.3255 29.7754 22.9219 29.873 22.5508L31.3086 17.1797H33.5938L30.5469 27.9902H27.9785Z" fill="#266294"/>
</svg>
